<svg width="380" height="264" viewBox="0 0 380 264" fill="none" xmlns="http://www.w3.org/2000/svg">
<rect width="380" height="264" fill="#3F3881"/>
<g opacity="0.2" clip-path="url(#clip0_1_37)">
<path d="M190 90.9336C181.495 90.9336 174.6 97.8283 174.6 106.334C174.608 114.835 181.498 121.725 190 121.734C198.505 121.734 205.4 114.839 205.4 106.334C205.4 97.8283 198.505 90.9336 190 90.9336ZM190 116.6C184.33 116.6 179.733 112.004 179.733 106.334C179.733 100.663 184.33 96.0669 190 96.0669C195.67 96.0669 200.266 100.663 200.266 106.334C200.266 112.004 195.67 116.6 190 116.6Z" fill="white"/>
<path d="M217.516 128.536C216.668 127.687 215.775 126.886 214.84 126.135L214.866 126.061C223.326 99.9528 213.862 71.375 191.491 55.4774C190.599 54.8405 189.401 54.8405 188.509 55.4774C166.138 71.375 156.674 99.9528 165.134 126.061L165.16 126.135C151.046 137.465 148.788 158.091 160.118 172.205C160.868 173.141 161.67 174.034 162.519 174.881C163 175.362 163.652 175.633 164.333 175.633C164.609 175.633 164.882 175.588 165.144 175.502C166.067 175.195 166.736 174.393 166.874 173.431L168.812 159.869C168.993 158.606 170.074 157.667 171.35 157.666H179.168L177.218 167.42C176.934 168.809 177.83 170.164 179.219 170.448C179.388 170.482 179.561 170.5 179.733 170.5H200.266C201.684 170.5 202.833 169.351 202.834 167.934C202.834 167.761 202.816 167.589 202.782 167.42L200.831 157.666H208.649C209.926 157.668 211.008 158.607 211.188 159.871L213.125 173.431C213.263 174.393 213.933 175.195 214.855 175.502C215.117 175.588 215.391 175.633 215.666 175.633C216.347 175.633 217 175.362 217.481 174.881C230.289 162.093 230.304 141.343 217.516 128.536ZM190 60.7573C196.168 65.4633 201.329 71.3612 205.174 78.1003H174.826C178.671 71.3612 183.831 65.4633 190 60.7573ZM171.35 152.533C167.525 152.55 164.286 155.36 163.73 159.145L162.619 166.93C159.19 161.753 157.608 155.569 158.13 149.382H158.127C158.692 142.506 161.804 136.089 166.854 131.389L173.645 152.533H171.35ZM182.864 165.367L184.404 157.667H195.595L197.135 165.367H182.864ZM179.038 152.533L170.588 126.246L170.023 124.488C165.648 110.933 166.438 96.2398 172.244 83.2336H207.756C213.561 96.2398 214.352 110.933 209.976 124.488L209.411 126.246L200.962 152.533H179.038ZM217.381 166.93L216.27 159.145C215.714 155.36 212.475 152.55 208.649 152.533H206.355L213.151 131.389C218.198 136.091 221.307 142.507 221.87 149.382C222.392 155.569 220.81 161.753 217.381 166.93Z" fill="white"/>
<path d="M179.733 175.428V183.795C173.5 181.893 166.727 183.549 162.075 188.113C158.175 183.472 152.428 180.785 146.367 180.767C144.498 180.767 142.638 181.026 140.841 181.537C138.768 169.206 128.071 160.189 115.567 160.233H113V165.367H115.567C126.059 165.334 134.867 173.261 135.938 183.698C133.444 185.151 131.283 187.112 129.596 189.455C124.97 185.503 119.085 183.331 113 183.333V188.467C124.335 188.48 133.52 197.665 133.533 209H138.667C138.67 203.315 136.772 197.791 133.277 193.307C134.8 190.783 137.014 188.747 139.657 187.44C139.683 187.44 139.711 187.44 139.737 187.414C141.804 186.416 144.071 185.899 146.367 185.9C151.341 185.923 155.999 188.343 158.879 192.399C157.421 195.14 156.65 198.195 156.633 201.3H161.767C161.764 198.676 162.506 196.105 163.905 193.885H163.889C163.925 193.836 163.974 193.8 164.01 193.749C167.478 188.652 174.09 186.754 179.733 189.237V195.961H184.867V175.428H179.733Z" fill="white"/>
<path d="M264.433 165.367H267V160.233H264.433C251.929 160.189 241.232 169.206 239.159 181.537C237.361 181.026 235.502 180.767 233.633 180.767C227.572 180.783 221.826 183.467 217.925 188.105C213.273 183.541 206.499 181.885 200.266 183.788V175.42H195.133V195.954H200.266V189.237C205.91 186.754 212.521 188.65 215.99 193.746C216.026 193.798 216.074 193.834 216.11 193.882H216.095C217.494 196.103 218.236 198.675 218.233 201.3H223.366C223.35 198.195 222.579 195.14 221.121 192.399C224 188.343 228.658 185.923 233.633 185.9C235.929 185.9 238.196 186.42 240.263 187.42C240.288 187.432 240.317 187.435 240.342 187.445C242.989 188.749 245.208 190.783 246.736 193.307C243.235 197.789 241.334 203.313 241.333 209H246.466C246.479 197.665 255.665 188.48 267 188.467V183.333C260.915 183.332 255.03 185.503 250.404 189.455C248.717 187.112 246.556 185.151 244.061 183.698C245.133 173.26 253.941 165.334 264.433 165.367Z" fill="white"/>
</g>
<defs>
<clipPath id="clip0_1_37">
<rect width="154" height="154" fill="white" transform="translate(113 55)"/>
</clipPath>
</defs>
</svg>
